<svg xmlns="http://www.w3.org/2000/svg" xmlns:xlink="http://www.w3.org/1999/xlink" version="1.1" id="Layer_1" x="0px" y="0px" width="100px" height="100px" viewBox="5.0 -10.0 100.0 135.0" enable-background="new 0 0 100 100" xml:space="preserve">
<path fill="#000000" d="M33.125,19.062c-0.519,0-0.938,0.419-0.938,0.938v54.844c0,0.519,0.419,0.938,0.938,0.938h33.75  c0.519,0,0.938-0.419,0.938-0.938V20c0-0.519-0.419-0.938-0.938-0.938H33.125z M65.938,73.906H34.062V20.938h31.875V73.906z"/>
<path fill="#000000" d="M50,77.188c-2.586,0-4.688,2.102-4.688,4.688s2.102,4.688,4.688,4.688s4.688-2.102,4.688-4.688  S52.586,77.188,50,77.188z M50,84.688c-1.551,0-2.812-1.262-2.812-2.812s1.262-2.812,2.812-2.812s2.812,1.262,2.812,2.812  S51.551,84.688,50,84.688z"/>
<path fill="#000000" d="M33.125,9.688c-2.586,0-4.688,2.102-4.688,4.688v71.25c0,2.586,2.102,4.688,4.688,4.688h33.75  c2.586,0,4.688-2.102,4.688-4.688v-71.25c0-2.586-2.102-4.688-4.688-4.688H33.125z M69.688,14.375v71.25  c0,1.551-1.262,2.812-2.812,2.812h-33.75c-1.551,0-2.812-1.262-2.812-2.812v-71.25c0-1.551,1.262-2.812,2.812-2.812h33.75  C68.426,11.562,69.688,12.824,69.688,14.375z"/>
<path fill="#000000" d="M46.25,17.188h7.5c0.519,0,0.938-0.419,0.938-0.938s-0.419-0.938-0.938-0.938h-7.5  c-0.519,0-0.938,0.419-0.938,0.938S45.731,17.188,46.25,17.188z"/>
<path fill="#000000" d="M40.625,55.625c1.034,0,1.875-1.26,1.875-2.812c0-0.887-0.278-1.664-0.703-2.179l-2.984,1.492  c-0.037,0.222-0.062,0.448-0.062,0.687C38.75,54.365,39.589,55.625,40.625,55.625z"/>
<path fill="#000000" d="M59.375,55.625c1.036,0,1.875-1.26,1.875-2.812c0-0.238-0.025-0.465-0.062-0.687l-2.984-1.492  c-0.425,0.515-0.703,1.292-0.703,2.179C57.5,54.365,58.341,55.625,59.375,55.625z"/>
<path fill="#000000" d="M38.75,62.188c0.527,0,0.753,0.203,1.212,0.663c0.511,0.511,1.212,1.212,2.538,1.212  s2.027-0.701,2.538-1.212c0.459-0.46,0.685-0.663,1.212-0.663s0.753,0.203,1.212,0.663c0.511,0.511,1.212,1.212,2.538,1.212  s2.027-0.701,2.538-1.212c0.459-0.46,0.685-0.663,1.212-0.663s0.753,0.203,1.212,0.663c0.511,0.511,1.212,1.212,2.538,1.212  s2.027-0.701,2.538-1.212c0.459-0.46,0.685-0.663,1.212-0.663c0.519,0,0.938-0.419,0.938-0.938s-0.419-0.938-0.938-0.938  c-1.326,0-2.027,0.701-2.538,1.212c-0.459,0.46-0.685,0.663-1.212,0.663s-0.753-0.203-1.212-0.663  c-0.511-0.511-1.212-1.212-2.538-1.212s-2.027,0.701-2.538,1.212c-0.459,0.46-0.685,0.663-1.212,0.663s-0.753-0.203-1.212-0.663  c-0.511-0.511-1.212-1.212-2.538-1.212s-2.027,0.701-2.538,1.212c-0.459,0.46-0.685,0.663-1.212,0.663s-0.753-0.203-1.212-0.663  c-0.511-0.511-1.212-1.212-2.538-1.212c-0.519,0-0.938,0.419-0.938,0.938S38.231,62.188,38.75,62.188z"/>
<text x="0.0" y="117.5" font-size="5.0" font-weight="bold" font-family="Helvetica Neue, Helvetica, Arial-Unicode, Arial, Sans-serif" fill="#000000">Created by Julien Deveaux</text><text x="0.0" y="122.5" font-size="5.0" font-weight="bold" font-family="Helvetica Neue, Helvetica, Arial-Unicode, Arial, Sans-serif" fill="#000000">from the Noun Project</text></svg>