<svg xmlns="http://www.w3.org/2000/svg" xmlns:xlink="http://www.w3.org/1999/xlink" version="1.1" id="Layer_1" x="0px" y="0px" width="100px" height="100px" viewBox="5.0 -10.0 100.0 135.0" enable-background="new 0 0 100 100" xml:space="preserve">
<path fill="#000000" d="M33.125,19.062c-0.518,0-0.938,0.419-0.938,0.938v54.844c0,0.519,0.419,0.938,0.938,0.938h33.75  c0.518,0,0.938-0.419,0.938-0.938V20c0-0.519-0.419-0.938-0.938-0.938H33.125z M65.938,73.906H34.062V20.938h31.875V73.906z"/>
<path fill="#000000" d="M50,77.188c-2.585,0-4.688,2.102-4.688,4.688s2.102,4.688,4.688,4.688s4.688-2.102,4.688-4.688  S52.585,77.188,50,77.188z M50,84.688c-1.551,0-2.812-1.262-2.812-2.812s1.262-2.812,2.812-2.812s2.812,1.262,2.812,2.812  S51.551,84.688,50,84.688z"/>
<path fill="#000000" d="M33.125,9.688c-2.585,0-4.688,2.102-4.688,4.688v71.25c0,2.586,2.102,4.688,4.688,4.688h33.75  c2.585,0,4.688-2.102,4.688-4.688v-71.25c0-2.586-2.102-4.688-4.688-4.688H33.125z M69.688,14.375v71.25  c0,1.551-1.262,2.812-2.812,2.812h-33.75c-1.551,0-2.812-1.262-2.812-2.812v-71.25c0-1.551,1.262-2.812,2.812-2.812h33.75  C68.426,11.562,69.688,12.824,69.688,14.375z"/>
<path fill="#000000" d="M46.25,17.188h7.5c0.518,0,0.938-0.419,0.938-0.938s-0.419-0.938-0.938-0.938h-7.5  c-0.518,0-0.938,0.419-0.938,0.938S45.732,17.188,46.25,17.188z"/>
<ellipse fill="#000000" cx="40.625" cy="52.812" rx="1.875" ry="2.812"/>
<ellipse fill="#000000" cx="59.375" cy="52.812" rx="1.875" ry="2.812"/>
<path fill="#000000" d="M59.375,57.5h-18.75c-0.586,0-1.137,0.274-1.492,0.74c-0.354,0.467-0.471,1.072-0.313,1.637  c0.079,0.285,2.049,6.998,11.181,6.998c9.133,0,11.102-6.713,11.182-6.998c0.156-0.564,0.041-1.17-0.315-1.637  C60.514,57.774,59.961,57.5,59.375,57.5z"/>
<text x="0.0" y="117.5" font-size="5.0" font-weight="bold" font-family="Helvetica Neue, Helvetica, Arial-Unicode, Arial, Sans-serif" fill="#000000">Created by Julien Deveaux</text><text x="0.0" y="122.5" font-size="5.0" font-weight="bold" font-family="Helvetica Neue, Helvetica, Arial-Unicode, Arial, Sans-serif" fill="#000000">from the Noun Project</text></svg>